<svg xmlns="http://www.w3.org/2000/svg" viewBox="0 0 64 64" width="64" height="64"><title>logo instagram</title><g class="nc-icon-wrapper" fill="#898994"><path fill="#898994" d="M32,5.766c8.544,0,9.556,0.033,12.931,0.187c3.642,0.166,7.021,0.895,9.621,3.496 c2.6,2.6,3.329,5.979,3.496,9.621c0.154,3.374,0.187,4.386,0.187,12.931s-0.033,9.556-0.187,12.931 c-0.166,3.642-0.895,7.021-3.496,9.621c-2.6,2.6-5.98,3.329-9.621,3.496c-3.374,0.154-4.386,0.187-12.931,0.187 s-9.557-0.033-12.931-0.187c-3.642-0.166-7.021-0.895-9.621-3.496c-2.6-2.6-3.329-5.979-3.496-9.621 C5.798,41.556,5.766,40.544,5.766,32s0.033-9.556,0.187-12.931c0.166-3.642,0.895-7.021,3.496-9.621 c2.6-2.6,5.979-3.329,9.621-3.496C22.444,5.798,23.456,5.766,32,5.766 M32,0c-8.691,0-9.78,0.037-13.194,0.193 c-5.2,0.237-9.768,1.511-13.436,5.178C1.705,9.037,0.43,13.604,0.193,18.806C0.037,22.22,0,23.309,0,32 c0,8.691,0.037,9.78,0.193,13.194c0.237,5.2,1.511,9.768,5.178,13.436c3.666,3.666,8.234,4.941,13.436,5.178 C22.22,63.963,23.309,64,32,64s9.78-0.037,13.194-0.193c5.199-0.237,9.768-1.511,13.436-5.178c3.666-3.666,4.941-8.234,5.178-13.436 C63.963,41.78,64,40.691,64,32s-0.037-9.78-0.193-13.194c-0.237-5.2-1.511-9.768-5.178-13.436 c-3.666-3.666-8.234-4.941-13.436-5.178C41.78,0.037,40.691,0,32,0L32,0z"/> <path data-color="color-2" d="M32,15.568c-9.075,0-16.432,7.357-16.432,16.432c0,9.075,7.357,16.432,16.432,16.432 S48.432,41.075,48.432,32C48.432,22.925,41.075,15.568,32,15.568z M32,42.667c-5.891,0-10.667-4.776-10.667-10.667 c0-5.891,4.776-10.667,10.667-10.667c5.891,0,10.667,4.776,10.667,10.667C42.667,37.891,37.891,42.667,32,42.667z"/> <circle data-color="color-2" cx="49.082" cy="14.918" r="3.84"/></g></svg>