<svg xmlns="http://www.w3.org/2000/svg" viewBox="0 0 48 48" width="48" height="48"><title>energy</title><g class="nc-icon-wrapper"><path d="M34.438,11.774c-.245-.3-.462-.569-.645-.806a1,1,0,0,0-1.745.3,15.325,15.325,0,0,1-2.474,4.648c.064-3.972-.723-10.981-6.479-14.756A1,1,0,0,0,21.546,2c0,3.276-1.755,6.767-4.806,9.575C13.788,14.293,6.929,21.476,7,29.433c.047,5.223,2.558,12.328,8.843,15.674a1,1,0,0,0,1.449-.672,19.274,19.274,0,0,1,2.843-6.087c1.41-2.264,2.743-4.4,2.865-7.389a1,1,0,0,1,1.685-.688c3.548,3.339,5.638,8.108,6.16,13.884a1,1,0,0,0,1.46.782c4.517-2.413,8.066-7,8.632-14.085C41.743,20.771,36.809,14.694,34.438,11.774Z" fill="#e86c60"/></g></svg>