<svg xmlns="http://www.w3.org/2000/svg" viewBox="0 0 48 48" width="48" height="48"><title>linux</title><g class="nc-icon-wrapper"><path d="M22.625,10.125c2.031-.472,5.813,2.937,7.937,6.75a41.774,41.774,0,0,1,4,12.625c.438,3.125,1.313,9.981-.812,11.553S26.592,43.5,23.233,43.562s-7.671-.124-9.171-4.374-1.937-7.626-1.374-10.438S16,20.938,17,19.5s1.029-1.266,1.4-3.688S20.329,10.658,22.625,10.125Z" fill="#fff"/> <path d="M17.9,45.428c2.851-1.371,8.879-1.227,12.993,0s1.876-11.78.343-8.21a8.618,8.618,0,0,1-7.832,5.323c-6.6,0-8.68-4.728-8.68-4.728Z" fill="#020204"/> <path d="M31.451,46.523c1.746,1.165,3.7-.048,4.715-1.034a14.146,14.146,0,0,1,3.586-2.671,8.842,8.842,0,0,0,3.2-2.021c.385-.65.336-1.4-.674-1.973a4.614,4.614,0,0,1-2.334-2.406c-.217-.963-.024-1.853-.77-2.431s-4.278-.605-5.293-.649-2.527-.385-2.96,0-.192,1.877-.168,2.7a44.208,44.208,0,0,1-.361,4.908C30.223,41.879,28.924,44.839,31.451,46.523Z" fill="#f5bd0c"/> <path d="M17.8,16.411V7.659A6.659,6.659,0,0,1,24.455,1h0a6.659,6.659,0,0,1,6.659,6.659v6.009c0,2.166,2.779,5.017,4.583,7a16.048,16.048,0,0,1,3.537,8.3c.253,2.743-.191,5.9-2.526,6.965-2.057.939-4.067-.139-3.966-2.7.034-.847.393-5.523-.762-8.88a96.12,96.12,0,0,0-4.574-9.757s-8.275-1.72-8.275.337A8.88,8.88,0,0,1,17.8,20.742c-1.552,2.779-4.548,7.724-4.151,11.73,1.251,1.861,3.429,3.182,4.331,3.9s1.588,2.055,1.047,2.849-3.1.252-3.862,0S10.9,34.06,10.469,33.266a4.261,4.261,0,0,1-.036-3.429c.506-1.408,1.769-3.248,2.346-4.981a19.872,19.872,0,0,1,2.779-5.125C16.749,18.071,17.507,17.927,17.8,16.411Z" fill="#020204"/> <ellipse cx="25.64" cy="10.444" rx="2.178" ry="3.116" fill="#fff"/> <path d="M21.86,10.292c.121,1.447-.592,2.687-1.594,2.771s-1.728-1.034-1.849-2.481.409-2.674,1.41-2.758S21.738,8.845,21.86,10.292Z" fill="#fff"/> <ellipse cx="25.64" cy="10.66" rx="1.498" ry="1.057" transform="translate(14.045 35.891) rotate(-87.895)" fill="#020204"/> <ellipse cx="20.136" cy="10.735" rx="0.938" ry="1.353" transform="translate(-1.442 3.313) rotate(-9.083)" fill="#020204"/> <path d="M22.62,11.009c1.3,0,2.442,1.041,3.134,1.233s1.678.283,2.063,1-.1,1.636-1.155,2.165-2.334,2.022-4.234,2.022-2.6-1.732-3.3-2.286a1.166,1.166,0,0,1-.362-1.757C19.185,12.675,21.2,11.009,22.62,11.009Z" fill="#f5bd0c"/> <path d="M18.77,45.585c1.2-1.955.409-3.754-.914-5.269a65.39,65.39,0,0,1-4.018-6.184c-.65-.987-1.54-1.877-2.43-1.733s-1.516,1.757-2.094,2.238-2.791.048-3.464.77-.048,3.3-.169,4.524-.77,1.876-.842,2.454.12,1.227,1.2,1.612,5.125,1.4,6.521,1.708S17.231,48.087,18.77,45.585Z" fill="#f5bd0c"/></g></svg>