<svg xmlns="http://www.w3.org/2000/svg" viewBox="0 0 48 48" width="48" height="48"><title>snow</title><g class="nc-icon-wrapper"><path fill="#42A6DD" d="M24,47c-0.5527344,0-1-0.4477539-1-1V28c0-0.5522461,0.4472656-1,1-1s1,0.4477539,1,1v18 C25,46.5522461,24.5527344,47,24,47z"/> <path fill="#42A6DD" d="M24,20.9995117c-0.5527344,0-1-0.4477539-1-1V2c0-0.5522461,0.4472656-1,1-1s1,0.4477539,1,1v17.9995117 C25,20.5517578,24.5527344,20.9995117,24,20.9995117z"/> <path fill="#42A6DD" d="M43.0517578,36c-0.1699219,0-0.3417969-0.0429688-0.4990234-0.1337891L26.96875,26.8686523 c-0.4785156-0.2763672-0.6425781-0.8876953-0.3662109-1.3662109s0.8886719-0.6420898,1.3662109-0.3662109l15.5839844,8.9975586 C44.03125,34.4101562,44.1953125,35.0214844,43.9189453,35.5C43.7333984,35.8208008,43.3974609,36,43.0517578,36z"/> <path fill="#42A6DD" d="M20.5136719,22.987793c-0.1699219,0-0.3417969-0.0429688-0.4990234-0.1337891l-15.5673828-8.987793 C3.96875,13.5898438,3.8046875,12.9785156,4.0810547,12.5c0.2763672-0.4790039,0.8886719-0.6430664,1.3662109-0.3662109 l15.5673828,8.987793c0.4785156,0.2763672,0.6425781,0.8876953,0.3662109,1.3662109 C21.1953125,22.8085938,20.859375,22.987793,20.5136719,22.987793z"/> <path fill="#42A6DD" d="M4.9482422,36c-0.3457031,0-0.6816406-0.1791992-0.8671875-0.5 c-0.2763672-0.4785156-0.1123047-1.0898438,0.3662109-1.3662109l15.5771484-8.9931641 c0.4765625-0.2758789,1.0898438-0.1123047,1.3662109,0.3662109s0.1123047,1.0898438-0.3662109,1.3662109L5.4472656,35.8662109 C5.2900391,35.9570312,5.1181641,36,4.9482422,36z"/> <path fill="#42A6DD" d="M27.4609375,23.0024414c-0.3457031,0-0.6816406-0.1791992-0.8671875-0.5 c-0.2763672-0.4785156-0.1123047-1.0898438,0.3662109-1.3662109l15.5927734-9.0024414 c0.4765625-0.2768555,1.0888672-0.112793,1.3662109,0.3662109c0.2763672,0.4785156,0.1123047,1.0898438-0.3662109,1.3662109 l-15.5927734,9.0024414C27.8027344,22.9594727,27.6308594,23.0024414,27.4609375,23.0024414z"/> <path fill="#42A6DD" d="M24,11c-0.2558594,0-0.5117188-0.0976562-0.7070312-0.2929688l-6-6 c-0.390625-0.390625-0.390625-1.0234375,0-1.4140625s1.0234375-0.390625,1.4140625,0L24,8.5859375l5.2929688-5.2929688 c0.390625-0.390625,1.0234375-0.390625,1.4140625,0s0.390625,1.0234375,0,1.4140625l-6,6C24.5117188,10.9023438,24.2558594,11,24,11 z"/> <path fill="#42A6DD" d="M30,45c-0.2558594,0-0.5117188-0.0976562-0.7070312-0.2929688L24,39.4140625l-5.2929688,5.2929688 c-0.390625,0.390625-1.0234375,0.390625-1.4140625,0s-0.390625-1.0234375,0-1.4140625l6-6 c0.390625-0.390625,1.0234375-0.390625,1.4140625,0l6,6c0.390625,0.390625,0.390625,1.0234375,0,1.4140625 C30.5117188,44.9023438,30.2558594,45,30,45z"/> <path fill="#42A6DD" d="M3.6787109,20.1967773c-0.4414062,0-0.8457031-0.2949219-0.9648438-0.7416992 c-0.1425781-0.5332031,0.1738281-1.081543,0.7070312-1.2246094l7.2304688-1.9375L8.7138672,9.0625 C8.5712891,8.5292969,8.8876953,7.980957,9.4208984,7.8378906c0.5341797-0.144043,1.0830078,0.1733398,1.2246094,0.7070312 l2.1962891,8.1962891c0.1425781,0.5332031-0.1738281,1.081543-0.7070312,1.2246094l-8.1962891,2.1962891 C3.8515625,20.1855469,3.7646484,20.1967773,3.6787109,20.1967773z"/> <path fill="#42A6DD" d="M38.3193359,40.1967773c-0.4414062,0-0.8457031-0.2949219-0.9648438-0.7416992l-2.1962891-8.1962891 c-0.1425781-0.5332031,0.1738281-1.081543,0.7070312-1.2246094l8.1962891-2.1962891 c0.5332031-0.144043,1.0820312,0.1733398,1.2246094,0.7070312c0.1425781,0.5332031-0.1738281,1.081543-0.7070312,1.2246094 l-7.2304688,1.9375l1.9375,7.2304688c0.1425781,0.5332031-0.1738281,1.081543-0.7070312,1.2246094 C38.4921875,40.1855469,38.4052734,40.1967773,38.3193359,40.1967773z"/> <path fill="#42A6DD" d="M44.3212891,20.1967773c-0.0859375,0-0.1728516-0.0112305-0.2597656-0.034668l-8.1962891-2.1962891 c-0.5332031-0.1430664-0.8496094-0.6914062-0.7070312-1.2246094l2.1962891-8.1962891 c0.1425781-0.5336914,0.6914062-0.8505859,1.2246094-0.7070312C39.1123047,7.980957,39.4287109,8.5292969,39.2861328,9.0625 l-1.9375,7.2304688l7.2304688,1.9375c0.5332031,0.1430664,0.8496094,0.6914062,0.7070312,1.2246094 C45.1669922,19.9018555,44.7626953,20.1967773,44.3212891,20.1967773z"/> <path fill="#42A6DD" d="M9.6806641,40.1967773c-0.0859375,0-0.1728516-0.0112305-0.2597656-0.034668 C8.8876953,40.019043,8.5712891,39.4707031,8.7138672,38.9375l1.9375-7.2304688l-7.2304688-1.9375 c-0.5332031-0.1430664-0.8496094-0.6914062-0.7070312-1.2246094c0.1425781-0.5336914,0.6923828-0.8505859,1.2246094-0.7070312 l8.1962891,2.1962891c0.5332031,0.1430664,0.8496094,0.6914062,0.7070312,1.2246094l-2.1962891,8.1962891 C10.5263672,39.9018555,10.1220703,40.1967773,9.6806641,40.1967773z"/> <path fill="#42A6DD" d="M24,29c-2.7568359,0-5-2.2431641-5-5s2.2431641-5,5-5s5,2.2431641,5,5S26.7568359,29,24,29z M24,21 c-1.6542969,0-3,1.3457031-3,3s1.3457031,3,3,3s3-1.3457031,3-3S25.6542969,21,24,21z"/></g></svg>